<svg width="194" height="51" viewBox="0 0 194 51" fill="none" xmlns="http://www.w3.org/2000/svg">
<path d="M91.3275 25.0138C91.3275 25.3631 91.5543 25.6514 92.0078 25.8785C92.4787 26.0882 93.0457 26.2803 93.7085 26.4551C94.3713 26.6123 95.0343 26.822 95.6971 27.084C96.3599 27.3285 96.9182 27.7478 97.3716 28.3419C97.8426 28.9359 98.0781 29.6784 98.0781 30.5694C98.0781 31.9145 97.5723 32.9541 96.5605 33.6879C95.5662 34.4041 94.319 34.7623 92.8189 34.7623C90.1326 34.7623 88.301 33.7227 87.3242 31.6438L90.2547 29.9928C90.6385 31.1284 91.4931 31.6962 92.8189 31.6962C94.0225 31.6962 94.6243 31.3207 94.6243 30.5694C94.6243 30.22 94.3888 29.9404 93.9178 29.7308C93.4644 29.5036 92.9061 29.3028 92.2433 29.1281C91.5805 28.9533 90.9175 28.735 90.2547 28.4729C89.5919 28.2109 89.025 27.8002 88.554 27.2412C88.1005 26.6647 87.8737 25.9485 87.8737 25.0924C87.8737 23.7996 88.3447 22.7863 89.2866 22.0525C90.246 21.3012 91.4321 20.9257 92.8451 20.9257C93.9092 20.9257 94.8773 21.1702 95.7494 21.6594C96.6215 22.1311 97.3106 22.8125 97.8164 23.7035L94.9383 25.2758C94.5196 24.3848 93.8218 23.9393 92.8451 23.9393C92.4089 23.9393 92.0426 24.0355 91.7461 24.2276C91.467 24.4197 91.3275 24.6818 91.3275 25.0138ZM111.216 32.7707C109.873 34.0985 108.233 34.7623 106.297 34.7623C104.361 34.7623 102.721 34.0985 101.378 32.7707C100.052 31.4255 99.3896 29.7832 99.3896 27.844C99.3896 25.9048 100.052 24.2713 101.378 22.9435C102.721 21.5983 104.361 20.9257 106.297 20.9257C108.233 20.9257 109.873 21.5983 111.216 22.9435C112.559 24.2713 113.231 25.9048 113.231 27.844C113.231 29.7832 112.559 31.4255 111.216 32.7707ZM103.759 30.4383C104.439 31.1197 105.285 31.4604 106.297 31.4604C107.309 31.4604 108.155 31.1197 108.835 30.4383C109.516 29.757 109.856 28.8922 109.856 27.844C109.856 26.7958 109.516 25.931 108.835 25.2496C108.155 24.5683 107.309 24.2276 106.297 24.2276C105.285 24.2276 104.439 24.5683 103.759 25.2496C103.096 25.931 102.765 26.7958 102.765 27.844C102.765 28.8922 103.096 29.757 103.759 30.4383ZM115.605 34.3954V16.09L118.981 14.7412V34.3954H115.605ZM130.705 21.2926H134.08V34.3954H130.705V32.9279C129.885 34.1509 128.585 34.7623 126.806 34.7623C125.376 34.7623 124.189 34.2819 123.247 33.321C122.323 32.36 121.861 31.0324 121.861 29.3377V21.2926H125.236V28.9184C125.236 29.7919 125.472 30.4646 125.942 30.9363C126.413 31.3904 127.041 31.6176 127.826 31.6176C128.699 31.6176 129.396 31.3469 129.92 30.8052C130.443 30.2636 130.705 29.4512 130.705 28.3681V21.2926ZM144.654 24.5421H141.698V29.9928C141.698 30.447 141.811 30.779 142.038 30.9887C142.265 31.1983 142.596 31.3207 143.032 31.3555C143.468 31.3731 144.009 31.3642 144.654 31.3293V34.3954C142.334 34.6575 140.695 34.4391 139.735 33.7403C138.794 33.0414 138.323 31.7924 138.323 29.9928V24.5421H136.046V21.2926H138.323V18.6458L141.698 17.6238V21.2926H144.654V24.5421ZM164.645 32.7707C163.302 34.0985 161.662 34.7623 159.726 34.7623C157.79 34.7623 156.15 34.0985 154.807 32.7707C153.481 31.4255 152.819 29.7832 152.819 27.844C152.819 25.9048 153.481 24.2713 154.807 22.9435C156.15 21.5983 157.79 20.9257 159.726 20.9257C161.662 20.9257 163.302 21.5983 164.645 22.9435C165.988 24.2713 166.66 25.9048 166.66 27.844C166.66 29.7832 165.988 31.4255 164.645 32.7707ZM157.188 30.4383C157.869 31.1197 158.714 31.4604 159.726 31.4604C160.738 31.4604 161.584 31.1197 162.264 30.4383C162.945 29.757 163.285 28.8922 163.285 27.844C163.285 26.7958 162.945 25.931 162.264 25.2496C161.584 24.5683 160.738 24.2276 159.726 24.2276C158.714 24.2276 157.869 24.5683 157.188 25.2496C156.525 25.931 156.194 26.7958 156.194 27.844C156.194 28.8922 156.525 29.757 157.188 30.4383ZM176.309 20.9257C177.739 20.9257 178.917 21.4061 179.841 22.367C180.783 23.3279 181.254 24.6556 181.254 26.3503V34.3954H177.878V26.7695C177.878 25.8961 177.643 25.2321 177.172 24.7779C176.701 24.3062 176.073 24.0704 175.288 24.0704C174.417 24.0704 173.718 24.3411 173.195 24.8827C172.672 25.4244 172.41 26.2368 172.41 27.3199V34.3954H169.035V21.2926H172.41V22.7601C173.229 21.5371 174.529 20.9257 176.309 20.9257ZM187.249 25.0138C187.249 25.3631 187.476 25.6514 187.929 25.8785C188.4 26.0882 188.968 26.2803 189.63 26.4551C190.294 26.6123 190.956 26.822 191.618 27.084C192.282 27.3285 192.84 27.7478 193.293 28.3419C193.764 28.9359 193.999 29.6784 193.999 30.5694C193.999 31.9145 193.494 32.9541 192.482 33.6879C191.488 34.4041 190.242 34.7623 188.74 34.7623C186.055 34.7623 184.224 33.7227 183.246 31.6438L186.176 29.9928C186.56 31.1284 187.416 31.6962 188.74 31.6962C189.944 31.6962 190.546 31.3207 190.546 30.5694C190.546 30.22 190.31 29.9404 189.839 29.7308C189.386 29.5036 188.829 29.3028 188.165 29.1281C187.502 28.9533 186.84 28.735 186.176 28.4729C185.514 28.2109 184.946 27.8002 184.475 27.2412C184.022 26.6647 183.795 25.9485 183.795 25.0924C183.795 23.7996 184.266 22.7863 185.208 22.0525C186.168 21.3012 187.354 20.9257 188.766 20.9257C189.831 20.9257 190.799 21.1702 191.671 21.6594C192.544 22.1311 193.233 22.8125 193.738 23.7035L190.86 25.2758C190.441 24.3848 189.744 23.9393 188.766 23.9393C188.331 23.9393 187.965 24.0355 187.668 24.2276C187.39 24.4197 187.249 24.6818 187.249 25.0138Z" fill="white"/>
<path d="M83.5713 29.167C83.1352 29.6038 82.6118 29.8222 82.0014 29.8222C81.3909 29.8222 80.8676 29.6038 80.4315 29.167C79.9953 28.7302 79.7773 28.2061 79.7773 27.5947C79.7773 26.9833 79.9953 26.4591 80.4315 26.0223C80.8676 25.5855 81.3909 25.3672 82.0014 25.3672C82.6118 25.3672 83.1352 25.5855 83.5713 26.0223C84.0074 26.4591 84.2254 26.9833 84.2254 27.5947C84.2254 28.2061 84.0074 28.7302 83.5713 29.167Z" fill="white"/>
<path fill-rule="evenodd" clip-rule="evenodd" d="M25.4541 50.9082C39.512 50.9082 50.9082 39.512 50.9082 25.4541C50.9082 11.3962 39.512 0 25.4541 0C11.3962 0 0 11.3962 0 25.4541C0 39.512 11.3962 50.9082 25.4541 50.9082ZM22.1442 20.9622H18.1015V22.229C17.1492 21.1328 15.8106 20.5848 14.0857 20.5848C12.3069 20.5848 10.7887 21.2767 9.53094 22.66C8.27322 24.0257 7.64435 25.7057 7.64435 27.6999C7.64435 29.6944 8.27322 31.3834 9.53094 32.767C10.7887 34.1324 12.3069 34.8153 14.0857 34.8153C15.8106 34.8153 17.1492 34.2671 18.1015 33.1711V34.4379H22.1442V20.9622ZM14.8943 30.9881C13.942 30.9881 13.1694 30.6917 12.5764 30.0987C11.9835 29.5057 11.6871 28.7063 11.6871 27.6999C11.6871 26.6938 11.9835 25.8944 12.5764 25.3014C13.1694 24.7084 13.942 24.4119 14.8943 24.4119C15.8465 24.4119 16.619 24.7084 17.212 25.3014C17.805 25.8944 18.1015 26.6938 18.1015 27.6999C18.1015 28.7063 17.805 29.5057 17.212 30.0987C16.619 30.6917 15.8465 30.9881 14.8943 30.9881ZM25.1102 16.0755V34.4379H29.1528V19.6098L26.7029 20.3826L29.1528 17.9288V14.7634L25.1102 16.0755ZM37.2319 24.8432H40.0079V20.9622H37.2319V17.1891L33.1893 18.4018V20.9622H31.0331V24.8432H33.1893V29.6136C33.1893 31.5721 33.6833 32.9376 34.6716 33.7102C35.6598 34.4648 37.4387 34.7074 40.0079 34.4379V30.7725C39.0198 30.8264 38.31 30.7815 37.8788 30.6377C37.4475 30.494 37.2319 30.1526 37.2319 29.6136V24.8432Z" fill="white"/>
<path fill-rule="evenodd" clip-rule="evenodd" d="M62.0459 18.6913V15.7632L65.4212 14.7412V17.7279L62.0459 18.6913ZM62.0505 20.8779V34.3944H65.4258L65.5144 19.8464L62.0505 20.8779ZM73.0416 24.5411H75.9983V21.2915H73.0416V17.6227L69.6663 18.6448V21.2915H67.39V24.5411H69.6663V29.9918C69.6663 31.7914 70.1373 33.0404 71.0792 33.7393C72.0387 34.4381 73.6784 34.6565 75.9983 34.3944V31.3283C75.353 31.3632 74.8122 31.3721 74.376 31.3545C73.9401 31.3197 73.6086 31.1973 73.3818 30.9877C73.1551 30.778 73.0416 30.446 73.0416 29.9918V24.5411Z" fill="white"/>
<path d="M57.4062 29.167C56.9701 29.6038 56.4468 29.8222 55.8363 29.8222C55.2259 29.8222 54.7026 29.6038 54.2664 29.167C53.8303 28.7302 53.6123 28.2061 53.6123 27.5947C53.6123 26.9833 53.8303 26.4591 54.2664 26.0223C54.7026 25.5855 55.2259 25.3672 55.8363 25.3672C56.4468 25.3672 56.9701 25.5855 57.4062 26.0223C57.8424 26.4591 58.0604 26.9833 58.0604 27.5947C58.0604 28.2061 57.8424 28.7302 57.4062 29.167Z" fill="white"/>
<path fill-rule="evenodd" clip-rule="evenodd" d="M147.021 18.6913V15.7632L150.397 14.7412V17.7279L147.021 18.6913ZM147.027 20.8785V34.3951H150.402L150.49 19.847L147.027 20.8785Z" fill="white"/>
</svg>
